<svg width="3218" height="799" viewBox="0 0 3218 799" fill="none" xmlns="http://www.w3.org/2000/svg">
<path d="M670.909 599.1C742.205 599.1 800 541.303 800 470.008C800 408.764 757.336 357.517 700.117 344.277C698.947 214.692 593.555 110 463.694 110C374.538 110 296.92 159.352 256.634 232.22C244.377 226.916 230.866 223.962 216.661 223.962C165.489 223.962 123.256 262.12 116.791 311.528C50.2047 324.731 0 383.453 0 453.916C0 534.1 65.0016 599.1 145.183 599.1C167.517 599.1 655.608 599.1 670.909 599.1Z" fill="#FFF700"/>
<path d="M1274.29 599H1234.29L1013.14 262.989V599H973.135V199.558H1013.14L1234.29 534.998V199.558H1274.29V599ZM1384.89 228.13C1376.89 228.13 1370.03 225.273 1364.32 219.559C1358.6 213.844 1355.75 206.796 1355.75 198.415C1355.75 190.034 1358.6 183.177 1364.32 177.843C1370.03 172.129 1376.89 169.271 1384.89 169.271C1392.89 169.271 1399.75 172.129 1405.46 177.843C1411.18 183.177 1414.03 190.034 1414.03 198.415C1414.03 206.796 1411.18 213.844 1405.46 219.559C1399.75 225.273 1392.89 228.13 1384.89 228.13ZM1404.89 286.99V599H1364.89V286.99H1404.89ZM1866.92 281.275C1903.49 281.275 1933.2 292.894 1956.06 316.133C1979.3 338.991 1990.92 372.326 1990.92 416.137V599H1951.49V420.708C1951.49 386.802 1943.3 360.897 1926.92 342.991C1910.54 325.086 1888.25 316.133 1860.06 316.133C1830.72 316.133 1807.29 325.848 1789.77 345.277C1772.25 364.706 1763.48 392.898 1763.48 429.851V599H1724.05V420.708C1724.05 386.802 1715.86 360.897 1699.48 342.991C1683.1 325.086 1660.62 316.133 1632.05 316.133C1602.72 316.133 1579.29 325.848 1561.76 345.277C1544.24 364.706 1535.48 392.898 1535.48 429.851V599H1495.47V286.99H1535.48V340.706C1545.38 321.276 1559.48 306.609 1577.76 296.704C1596.05 286.418 1616.43 281.275 1638.91 281.275C1665.96 281.275 1689.58 287.751 1709.77 300.704C1730.34 313.657 1745.2 332.705 1754.34 357.849C1762.72 333.086 1777.01 314.229 1797.2 301.276C1817.77 287.942 1841.01 281.275 1866.92 281.275ZM2119.19 356.135C2129.47 334.42 2145.28 316.705 2166.62 302.99C2188.33 289.275 2213.86 282.418 2243.19 282.418C2271.76 282.418 2297.29 289.085 2319.77 302.419C2342.24 315.371 2359.77 334.039 2372.34 358.421C2385.29 382.421 2391.77 410.422 2391.77 442.423C2391.77 474.424 2385.29 502.616 2372.34 526.998C2359.77 551.379 2342.05 570.237 2319.19 583.571C2296.72 596.905 2271.38 603.572 2243.19 603.572C2213.48 603.572 2187.76 596.905 2166.05 583.571C2144.71 569.856 2129.09 552.141 2119.19 530.426V599H2079.76V176.129H2119.19V356.135ZM2351.19 442.423C2351.19 416.518 2346.05 394.231 2335.77 375.564C2325.86 356.516 2312.15 342.039 2294.62 332.134C2277.1 322.229 2257.29 317.276 2235.19 317.276C2213.86 317.276 2194.24 322.419 2176.33 332.705C2158.81 342.991 2144.9 357.659 2134.62 376.707C2124.33 395.755 2119.19 417.851 2119.19 442.995C2119.19 468.138 2124.33 490.234 2134.62 509.283C2144.9 528.331 2158.81 542.998 2176.33 553.284C2194.24 563.57 2213.86 568.713 2235.19 568.713C2257.29 568.713 2277.1 563.761 2294.62 553.856C2312.15 543.57 2325.86 528.902 2335.77 509.854C2346.05 490.425 2351.19 467.948 2351.19 442.423ZM2735.67 286.99V599H2695.67V544.141C2686.52 563.57 2672.43 578.428 2653.38 588.714C2634.33 599 2613 604.143 2589.38 604.143C2552.04 604.143 2521.57 592.714 2497.95 569.856C2474.33 546.617 2462.52 513.092 2462.52 469.281V286.99H2501.95V464.71C2501.95 498.616 2510.33 524.521 2527.09 542.427C2544.23 560.332 2567.47 569.285 2596.81 569.285C2626.9 569.285 2650.9 559.761 2668.81 540.712C2686.71 521.664 2695.67 493.663 2695.67 456.71V286.99H2735.67ZM2934.42 603.572C2898.61 603.572 2869.28 595.381 2846.42 578.999C2823.94 562.237 2811.37 539.569 2808.71 510.997H2849.85C2851.75 528.521 2859.95 542.808 2874.42 553.856C2889.28 564.523 2909.09 569.856 2933.85 569.856C2955.57 569.856 2972.52 564.713 2984.71 554.427C2997.28 544.141 3003.57 531.379 3003.57 516.14C3003.57 505.473 3000.14 496.711 2993.28 489.853C2986.43 482.996 2977.66 477.663 2967 473.853C2956.71 469.662 2942.61 465.281 2924.71 460.71C2901.47 454.614 2882.61 448.519 2868.14 442.423C2853.66 436.328 2841.28 427.375 2830.99 415.565C2821.09 403.374 2816.13 387.183 2816.13 366.992C2816.13 351.754 2820.71 337.658 2829.85 324.705C2838.99 311.752 2851.95 301.466 2868.71 293.847C2885.47 286.228 2904.52 282.418 2925.85 282.418C2959.38 282.418 2986.43 290.99 3007 308.133C3027.57 324.896 3038.62 348.134 3040.14 377.85H3000.14C2999 359.563 2991.76 344.896 2978.43 333.848C2965.47 322.419 2947.57 316.705 2924.71 316.705C2904.52 316.705 2888.14 321.467 2875.56 330.991C2862.99 340.515 2856.71 352.325 2856.71 366.421C2856.71 378.612 2860.33 388.707 2867.56 396.708C2875.18 404.327 2884.52 410.422 2895.57 414.994C2906.61 419.184 2921.47 423.947 2940.14 429.28C2962.62 435.375 2980.52 441.28 2993.85 446.995C3007.19 452.709 3018.62 461.091 3028.14 472.139C3037.67 483.187 3042.62 497.854 3043 516.14C3043 532.903 3038.43 547.951 3029.28 561.284C3020.14 574.237 3007.38 584.523 2991 592.143C2974.62 599.762 2955.76 603.572 2934.42 603.572Z" fill="white"/>
</svg>
